HIERARCHY
ROOT Beta:Hips
{
	OFFSET 0.00 0.00 0.00
	CHANNELS 6 Xposition Yposition Zposition Yrotation Xrotation Zrotation
	JOINT Beta:Spine
	{
		OFFSET	0.0000	9.2263	1.5771
		CHANNELS 3 Xrotation Yrotation Zrotation
		JOINT Beta:Spine1
		{
			OFFSET	0.0000	16.2540	-0.1656
			CHANNELS 3 Xrotation Yrotation Zrotation
			JOINT Beta:Spine2
			{
				OFFSET	0.0000	13.6396	-1.2923
				CHANNELS 3 Xrotation Yrotation Zrotation
				JOINT Beta:Neck
				{
					OFFSET	0.0000	13.8774	-4.3542
					CHANNELS 3 Xrotation Yrotation Zrotation
					JOINT Beta:Neck1
					{
						OFFSET	0.0000	4.3400	0.9269
						CHANNELS 3 Xrotation Yrotation Zrotation
						JOINT Beta:Head
						{
							OFFSET	0.0000	4.0266	0.8585
							CHANNELS 3 Xrotation Yrotation Zrotation
							End Site
							{
								OFFSET 0.0000 23.0297 0.1231
							}
						}
					}
				}
				JOINT Beta:LeftShoulder
				{
					OFFSET	6.1442	10.1870	-3.7932
					CHANNELS 3 Zrotation Xrotation Yrotation
					JOINT Beta:LeftArm
					{
						OFFSET	12.3191	-1.1130	-1.7935
						CHANNELS 3 Zrotation Xrotation Yrotation
						JOINT Beta:LeftForeArm
						{
							OFFSET	27.6870	0.0000	0.0000
							CHANNELS 3 Xrotation Zrotation Yrotation
							JOINT Beta:LeftHand
							{
								OFFSET	27.8738	0.0000	0.0000
								CHANNELS 3 Zrotation Yrotation Xrotation
								JOINT Beta:LeftHandThumb1
								{
									OFFSET	2.3785	-1.0029	2.6209
									CHANNELS 3 Zrotation Xrotation Yrotation
									JOINT Beta:LeftHandThumb2
									{
										OFFSET	3.3624	-1.0029	2.8398
										CHANNELS 3 Zrotation Xrotation Yrotation
										JOINT Beta:LeftHandThumb3
										{
											OFFSET	4.5018	-1.3445	2.1783
											CHANNELS 3 Zrotation Xrotation Yrotation
											End Site
											{
												OFFSET 2.6000 -1.0000 1.0000
											}
										}
									}
								}
								JOINT Beta:LeftHandMiddle1
								{
									OFFSET	10.4639	0.6148	0.4298
									CHANNELS 3 Zrotation Xrotation Yrotation
									JOINT Beta:LeftHandMiddle2
									{
										OFFSET	5.7921	0.0000	0.0000
										CHANNELS 3 Zrotation Xrotation Yrotation
										JOINT Beta:LeftHandMiddle3
										{
											OFFSET	3.7132	0.0000	0.0000
											CHANNELS 3 Zrotation Xrotation Yrotation
											End Site
											{
												OFFSET 2.3000 0.0000 0.0000
											}
										}
									}
								}
								JOINT Beta:LeftHandIndex1
								{
									OFFSET	10.3945	0.6148	2.7055
									CHANNELS 3 Zrotation Xrotation Yrotation
									JOINT Beta:LeftHandIndex2
									{
										OFFSET	5.5493	0.0000	0.0000
										CHANNELS 3 Zrotation Xrotation Yrotation
										JOINT Beta:LeftHandIndex3
										{
											OFFSET	3.3911	0.0000	0.0000
											CHANNELS 3 Zrotation Xrotation Yrotation
											End Site
											{
												OFFSET 2.5000 0.0000 0.0000
											}
										}
									}
								}
								JOINT Beta:LeftHandRing1
								{
									OFFSET	10.3252	0.3211	-1.8755
									CHANNELS 3 Zrotation Xrotation Yrotation
									JOINT Beta:LeftHandRing2
									{
										OFFSET	5.4452	0.0000	0.0000
										CHANNELS 3 Zrotation Xrotation Yrotation
										JOINT Beta:LeftHandRing3
										{
											OFFSET	3.7132	0.0000	0.0000
											CHANNELS 3 Zrotation Xrotation Yrotation
											End Site
											{
												OFFSET 2.0000 0.0000 0.0000
											}
										}
									}
								}
								JOINT Beta:LeftHandPinky1
								{
									OFFSET	10.0130	-0.0783	-3.9671
									CHANNELS 3 Zrotation Xrotation Yrotation
									JOINT Beta:LeftHandPinky2
									{
										OFFSET	3.6763	0.0000	0.0000
										CHANNELS 3 Zrotation Xrotation Yrotation
										JOINT Beta:LeftHandPinky3
										{
											OFFSET	2.8113	0.0000	0.0000
											CHANNELS 3 Zrotation Xrotation Yrotation
											End Site
											{
												OFFSET 2.9000 0.0000 0.0000
											}
										}
									}
								}
							}
						}
					}
				}
				JOINT Beta:RightShoulder
				{
					OFFSET	-6.1402	10.1870	-3.7932
					CHANNELS 3 Zrotation Xrotation Yrotation
					JOINT Beta:RightArm
					{
						OFFSET	-12.3231	-1.1130	-1.7935
						CHANNELS 3 Zrotation Xrotation Yrotation
						JOINT Beta:RightForeArm
						{
							OFFSET	-27.6870	0.0000	0.0000
							CHANNELS 3 Xrotation Zrotation Yrotation
							JOINT Beta:RightHand
							{
								OFFSET	-27.8738	0.0000	0.0000
								CHANNELS 3 Zrotation Yrotation Xrotation
								JOINT Beta:RightHandThumb1
								{
									OFFSET	-2.5178	-0.9367	2.5137
									CHANNELS 3 Zrotation Xrotation Yrotation
									JOINT Beta:RightHandThumb2
									{
										OFFSET	-3.2638	-1.0870	2.9669
										CHANNELS 3 Zrotation Xrotation Yrotation
										JOINT Beta:RightHandThumb3
										{
											OFFSET	-4.4165	-1.3703	2.1350
											CHANNELS 3 Zrotation Xrotation Yrotation
											End Site
											{
												OFFSET -2.6000 -1.0000 1.0000
											}
										}
									}
								}
								JOINT Beta:RightHandIndex1
								{
									OFFSET	-10.4665	0.4896	2.7120
									CHANNELS 3 Zrotation Xrotation Yrotation
									JOINT Beta:RightHandIndex2
									{
										OFFSET	-5.3768	0.0000	0.0000
										CHANNELS 3 Zrotation Xrotation Yrotation
										JOINT Beta:RightHandIndex3
										{
											OFFSET	-3.3855	0.0000	0.0000
											CHANNELS 3 Zrotation Xrotation Yrotation
											End Site
											{
												OFFSET -2.6000 0.0000 0.0000
											}
										}
									}
								}
								JOINT Beta:RightHandMiddle1
								{
									OFFSET	-10.7596	0.4896	0.4278
									CHANNELS 3 Zrotation Xrotation Yrotation
									JOINT Beta:RightHandMiddle2
									{
										OFFSET	-5.6168	0.0000	0.0000
										CHANNELS 3 Zrotation Xrotation Yrotation
										JOINT Beta:RightHandMiddle3
										{
											OFFSET	-3.7364	0.0000	0.0000
											CHANNELS 3 Zrotation Xrotation Yrotation
											End Site
											{
												OFFSET -2.3000 0.0000 0.0000
											}
										}
									}
								}
								JOINT Beta:RightHandRing1
								{
									OFFSET	-10.4702	0.3879	-1.9363
									CHANNELS 3 Zrotation Xrotation Yrotation
									JOINT Beta:RightHandRing2
									{
										OFFSET	-5.4013	0.0000	0.0000
										CHANNELS 3 Zrotation Xrotation Yrotation
										JOINT Beta:RightHandRing3
										{
											OFFSET	-3.3916	0.0000	0.0000
											CHANNELS 3 Zrotation Xrotation Yrotation
											End Site
											{
												OFFSET -2.2000 0.0000 0.0000
											}
										}
									}
								}
								JOINT Beta:RightHandPinky1
								{
									OFFSET	-9.9715	-0.1191	-3.9540
									CHANNELS 3 Zrotation Xrotation Yrotation
									JOINT Beta:RightHandPinky2
									{
										OFFSET	-3.6528	0.0000	0.0000
										CHANNELS 3 Zrotation Xrotation Yrotation
										JOINT Beta:RightHandPinky3
										{
											OFFSET	-2.7820	0.0000	0.0000
											CHANNELS 3 Zrotation Xrotation Yrotation
											End Site
											{
												OFFSET -2.9000 0.0000 0.0000
											}
										}
									}
								}
							}
						}
					}
				}
			}
		}
	}
	JOINT Beta:LeftUpLeg
	{
		OFFSET	9.6338	-3.2733	0.0000
		CHANNELS 3 Xrotation Yrotation Zrotation
		JOINT Beta:LeftLeg
		{
			OFFSET	0.0000	-41.7300	-1.7300
			CHANNELS 3 Xrotation Yrotation Zrotation
			JOINT Beta:LeftFoot
			{
				OFFSET	0.0126	-39.1900	-0.8477
				CHANNELS 3 Xrotation Yrotation Zrotation
				JOINT Beta:LeftToeBase
				{
					OFFSET	-0.1833	-12.1931	8.2823
					CHANNELS 3 Xrotation Yrotation Zrotation
					End Site
					{
						OFFSET 0.0000 0.0000 10.1681
					}
				}
			}
		}
	}
	JOINT Beta:RightUpLeg
	{
		OFFSET	-9.6338	-3.2733	0.0000
		CHANNELS 3 Xrotation Yrotation Zrotation
		JOINT Beta:RightLeg
		{
			OFFSET	0.0000	-41.7300	-1.7300
			CHANNELS 3 Xrotation Yrotation Zrotation
			JOINT Beta:RightFoot
			{
				OFFSET	0.0126	-39.1900	-0.8477
				CHANNELS 3 Xrotation Yrotation Zrotation
				JOINT Beta:RightToeBase
				{
					OFFSET	-0.1833	-12.1931	8.2823
					CHANNELS 3 Xrotation Yrotation Zrotation
					End Site
					{
						OFFSET 0.0032 0.0000 10.1681
					}
				}
			}
		}
	}
}
MOTION
Frames: 9
Frame Time: 0.0333333
9.9871 94.8003 -7.8740 -33.1295 -4.3716 -3.3827 2.9373 -0.3660 2.5389 0.7761 -1.5385 -2.5466 0.7273 -1.1112 1.3356 8.0554 -7.7854 3.1869 -0.0000 0.0000 -0.0000 1.2125 -23.6093 9.0767 -11.5640 4.4363 -17.6518 -61.4585 14.7717 5.5118 0.0000 0.0000 -9.2105 -3.2357 8.7079 -21.9603 -1.2621 4.7859 8.5754 14.2717 9.6181 12.2091 -4.3531 -7.3880 1.0508 -13.0193 0.0000 -1.0475 -17.6380 0.0000 -0.0000 -18.6486 -0.0000 0.0000 -3.9530 0.3667 -4.1802 -17.3292 0.0000 -0.0000 -7.9475 0.0000 0.0000 -19.2103 0.0000 -1.2378 -21.0170 0.0000 0.0000 -17.9582 0.0000 -0.0000 -25.2656 -0.2169 -0.4130 -17.5928 0.0000 -0.0000 -16.6670 0.0000 -0.0000 13.2656 4.4991 14.6048 62.2896 -28.9815 -15.4835 0.0000 -0.0000 23.3568 10.1755 12.3007 39.2424 1.2621 4.7859 -8.5754 -13.1469 9.9997 -12.2393 0.9570 -8.9446 4.5798 4.5338 0.4842 3.9479 17.4770 -0.0000 0.0000 8.0954 0.0000 0.0000 13.1061 -0.0000 0.4856 17.5262 0.0000 0.0000 18.5363 -0.0000 0.0000 18.3071 0.0000 1.0125 20.9028 -0.0000 -0.0000 17.8443 -0.0000 0.0000 23.8353 0.0020 -1.4741 17.3845 0.0000 0.0000 16.4860 0.0000 0.0000 -25.0122 23.6234 16.4923 37.8980 -4.7259 0.6327 -7.5245 20.3556 6.2109 -6.8687 0.0000 -0.0000 -5.4064 -25.2913 -3.2996 22.5379 -8.1304 9.6416 -13.5638 -29.9997 -6.8218 -9.0588 0.0000 0.0000 
9.6579 94.8170 -8.5350 -38.9824 -4.9517 -2.8540 3.1433 -0.0089 2.0307 0.9548 -1.2623 -2.9807 0.9070 -0.8123 1.0775 7.8304 -7.2418 2.8033 -0.0000 0.0000 -0.0000 0.8768 -23.1419 9.2419 -11.6984 4.4474 -18.1482 -60.3365 14.0247 5.5156 -0.0000 0.0000 -9.4959 -2.8522 9.1729 -22.0713 -1.2621 4.7859 8.5754 14.2139 9.6149 12.0885 -4.3272 -7.2838 1.0650 -13.1661 -0.0000 -1.0319 -17.6331 -0.0000 -0.0000 -18.6437 0.0000 0.0000 -5.1365 0.4091 -4.1046 -17.3886 0.0000 0.0000 -8.0069 0.0000 -0.0000 -19.4817 0.0000 -1.2536 -21.0256 0.0000 0.0000 -17.9669 -0.0000 -0.0000 -25.3494 -0.2286 -0.4775 -17.5631 -0.0000 0.0000 -16.6356 -0.0000 -0.0000 13.0382 4.3948 14.7855 63.4344 -29.0661 -14.7573 -0.0000 -0.0000 21.7586 9.5953 11.0861 38.9257 1.2621 4.7859 -8.5754 -13.0929 9.9997 -12.3919 0.9548 -8.9341 4.5833 4.4362 0.5166 3.8806 17.4772 -0.0000 -0.0000 8.0956 0.0000 -0.0000 13.0039 0.0000 0.6016 17.5148 0.0000 0.0000 18.5248 -0.0000 0.0000 18.1628 0.0000 0.9872 20.8971 0.0000 0.0000 17.8384 0.0000 0.0000 23.8441 0.0032 -1.3516 17.3837 0.0000 -0.0000 16.4846 -0.0000 0.0000 -28.2805 23.7535 19.2381 43.8174 -5.9247 -0.1286 -1.8494 15.7978 8.8966 -5.2811 -0.0000 0.0000 -5.5544 -26.5900 -3.0642 21.3785 -5.5986 8.4610 -12.6386 -29.9996 -7.2582 -9.2642 -0.0000 -0.0000 
9.3546 94.9911 -8.9395 -46.1536 -5.3497 -2.0323 3.2821 0.3696 1.3949 1.0818 -0.9524 -3.3621 1.0385 -0.4843 0.7993 7.6893 -6.5777 2.5592 -0.0000 0.0000 -0.0000 0.2905 -22.0709 9.3622 -11.7850 4.4442 -18.1743 -59.4425 13.4877 5.4097 -0.0000 0.0000 -9.5682 -2.4265 9.4036 -22.6158 -1.2620 4.7859 8.5754 14.0938 9.6333 12.7774 -4.3612 -7.3813 1.0815 -12.9405 0.0000 -1.0567 -17.6020 0.0000 -0.0000 -18.6127 0.0000 0.0000 -5.3475 0.4382 -4.0525 -17.4239 -0.0000 -0.0000 -8.0422 0.0000 0.0000 -19.1944 0.0000 -1.1934 -21.0248 -0.0000 -0.0000 -17.9659 0.0000 0.0000 -25.0762 -0.1753 -0.1735 -17.7289 0.0000 0.0000 -16.8086 0.0000 0.0000 13.0191 4.3735 14.9863 64.5236 -27.7702 -13.3109 0.0000 0.0000 19.8004 7.6036 10.5292 37.0172 1.2621 4.7859 -8.5754 -12.9828 9.9998 -13.5120 0.7767 -8.6063 4.7767 4.5737 0.5527 3.8062 17.4950 0.0000 0.0000 8.1134 -0.0000 -0.0000 13.0846 -0.0000 0.6853 17.4954 0.0000 -0.0000 18.5054 -0.0000 0.0000 18.3612 -0.0000 0.8440 20.9409 0.0000 0.0000 17.8814 -0.0000 -0.0000 23.9911 0.0041 -1.3586 17.4217 0.0000 0.0000 16.5229 0.0000 0.0000 -28.9556 23.4393 19.9601 45.9202 -9.0241 -0.3420 3.9722 12.8020 7.3055 -6.1251 0.0297 -1.9897 -5.2775 -27.0678 -2.5382 19.3790 -2.4124 7.2705 -11.8545 -29.9666 -8.6980 -9.2983 0.0000 -0.0000 
9.0598 95.2086 -8.9923 -54.1366 -5.5624 -1.3581 3.4241 0.6422 1.1188 1.2055 -0.7105 -3.5247 1.1655 -0.2335 0.6540 7.5075 -5.8301 2.3548 -0.0000 0.0000 -0.0000 -0.4245 -20.3750 9.0199 -11.8497 4.4428 -17.7027 -58.9993 13.0348 4.8791 -0.0000 0.0000 -9.0986 -2.5189 9.4820 -23.1866 -1.2621 4.7859 8.5754 14.2313 9.4103 12.9620 -4.3737 -7.3959 1.1120 -12.5409 -0.0000 -1.1011 -17.5247 0.0000 -0.0000 -18.5355 0.0000 0.0000 -4.6388 0.4603 -4.0130 -17.4192 0.0000 -0.0000 -8.0376 -0.0000 -0.0000 -18.7090 -0.0000 -1.0578 -21.0219 0.0000 0.0000 -17.9628 -0.0000 -0.0000 -24.5426 -0.0860 0.3323 -17.7622 0.0000 -0.0000 -16.8534 0.0000 0.0000 13.1710 4.4357 15.0932 65.4759 -25.2985 -11.3340 -0.0000 0.0000 17.6326 4.2891 10.1134 33.0655 1.2621 4.7859 -8.5754 -12.8657 9.9998 -14.3279 0.8655 -9.3299 4.5329 4.3739 0.5230 3.8694 17.4661 -0.0000 0.0000 8.0844 0.0000 0.0000 12.9035 0.0000 0.8801 17.4892 -0.0000 0.0000 18.4994 -0.0000 -0.0000 18.3784 0.0000 0.8407 20.9601 -0.0000 0.0000 17.9006 -0.0000 -0.0000 24.1323 0.0045 -1.2471 17.4297 -0.0000 0.0000 16.5304 0.0000 0.0000 -27.3176 22.4677 19.1579 44.1534 -9.8508 -0.8749 7.3434 10.8338 3.6275 -7.5098 0.2253 -5.5005 -4.5202 -27.1251 -1.7760 16.9726 1.2299 6.2975 -10.9981 -29.3056 -9.8551 -9.3062 -0.0000 -0.0000 
8.6647 95.4318 -8.6992 -62.2271 -5.7610 -0.7880 3.6460 0.8518 1.1269 1.3893 -0.6077 -3.5267 1.3501 -0.1415 0.5608 7.2105 -5.0609 2.0243 -0.0000 0.0000 -0.0000 -1.1098 -18.3506 8.0606 -11.9601 4.4638 -17.0907 -58.9679 12.9565 3.8801 -0.0000 -0.0000 -8.2170 -3.4076 9.1773 -23.7053 -1.2621 4.7859 8.5754 14.3419 9.3106 12.9464 -4.3767 -7.3968 1.1245 -12.3062 -0.0000 -1.1269 -17.5032 -0.0000 0.0000 -18.5142 -0.0000 -0.0000 -4.3316 0.4681 -3.9988 -17.5208 -0.0000 -0.0000 -8.1391 0.0000 -0.0000 -18.4045 -0.0000 -1.0090 -21.0219 0.0000 -0.0000 -17.9627 0.0000 -0.0000 -24.3107 -0.0537 0.5152 -17.5442 0.0000 -0.0000 -16.6393 -0.0000 -0.0000 13.3735 4.5559 14.8047 66.3077 -21.5313 -9.0474 -0.0000 -0.0000 15.3756 0.6716 9.1798 27.1019 1.2621 4.7859 -8.5754 -12.8790 9.3023 -13.7236 1.0584 -9.7706 4.0293 3.9744 0.4400 4.0423 17.4770 -0.0000 -0.0000 8.0954 -0.0000 0.0000 12.5093 0.0000 0.9542 17.4509 0.0000 -0.0000 18.4614 -0.0000 0.0000 18.0789 -0.0000 1.0240 20.9347 -0.0000 0.0000 17.8762 -0.0000 0.0000 23.9343 0.0044 -1.1532 17.4220 0.0000 0.0000 16.5221 -0.0000 0.0000 -24.1417 20.2142 17.3985 39.9424 -9.8200 -1.6400 8.4952 10.8449 0.7852 -8.7664 0.3743 -5.8495 -3.2005 -26.5700 -0.9017 14.2320 4.9828 5.4194 -9.7304 -27.1444 -10.3291 -9.0680 -0.0000 -0.0000 
8.1103 95.6728 -8.1920 -69.1894 -5.7219 -0.3798 3.8385 1.0179 1.1352 1.5509 -0.4814 -3.4723 1.5132 -0.0520 0.3592 6.8525 -4.2960 1.5772 -0.0000 0.0000 -0.0000 -1.7847 -16.2260 6.8552 -12.1820 4.5374 -16.3820 -59.1046 13.6129 2.5070 -0.0000 -0.0000 -7.3634 -4.6320 8.2052 -24.1427 -1.2621 4.7859 8.5754 14.3234 9.4423 12.7961 -4.3776 -7.3978 1.1114 -12.4346 -0.0000 -1.1490 -17.4773 0.0000 0.0000 -18.4884 0.0000 -0.0000 -4.6145 0.4591 -4.0150 -17.5415 -0.0000 -0.0000 -8.1599 0.0000 -0.0000 -18.5341 0.0000 -1.0389 -20.9802 -0.0000 0.0000 -17.9211 -0.0000 0.0000 -24.3957 -0.0695 0.4265 -17.5179 -0.0000 -0.0000 -16.6111 0.0000 0.0000 13.4623 4.6566 14.3620 66.9567 -16.3133 -6.8406 -0.0000 0.0000 13.1276 -2.1253 7.6154 19.7554 1.2621 4.7859 -8.5754 -12.8929 8.8322 -13.1539 1.1323 -9.8196 3.7793 3.8053 0.4058 4.1134 17.4624 -0.0000 0.0000 8.0807 0.0000 0.0000 12.2663 0.0000 0.9928 17.4457 -0.0000 0.0000 18.4563 -0.0000 0.0000 17.9639 0.0000 1.0939 20.9048 -0.0000 0.0000 17.8468 -0.0000 0.0000 23.7648 0.0038 -1.1257 17.4162 -0.0000 0.0000 16.5160 -0.0000 -0.0000 -20.5674 16.7654 15.1693 34.0474 -9.6489 -1.9803 8.8449 15.6219 -1.7966 -8.3860 0.3260 -5.7672 -2.6243 -25.1874 -0.2895 12.8733 7.3650 4.3852 -7.9863 -25.4580 -9.5295 -9.4444 -0.0000 -0.0000 
7.4002 95.8235 -7.5012 -73.6862 -5.4847 -0.4455 3.9783 1.1459 1.2798 1.6690 -0.1985 -3.2836 1.6323 0.1713 0.1544 6.4696 -3.5491 1.1273 -0.0000 0.0000 -0.0000 -2.7236 -14.0657 5.6536 -12.4412 4.5901 -16.1700 -59.4564 14.6922 1.2288 0.0000 0.0000 -6.7974 -5.5347 6.5871 -24.3669 -1.2621 4.7859 8.5754 14.2010 9.5023 13.0824 -4.3773 -7.3985 1.1050 -12.5517 -0.0000 -1.1438 -17.4885 0.0000 0.0000 -18.4996 -0.0000 0.0000 -4.8452 0.4490 -4.0332 -17.4430 0.0000 0.0000 -8.0613 0.0000 0.0000 -18.6606 -0.0000 -1.0740 -21.0197 0.0000 -0.0000 -17.9606 -0.0000 -0.0000 -24.4712 -0.0834 0.3495 -17.5132 0.0000 0.0000 -16.6056 -0.0000 0.0000 13.4759 4.7440 13.6860 67.2745 -9.9240 -4.8994 -0.0000 -0.0000 11.2032 -3.8802 5.7612 11.9603 1.2621 4.7859 -8.5754 -12.9076 8.6260 -13.0025 1.1584 -9.8399 3.6758 3.7193 0.3847 4.1573 17.4595 0.0000 0.0000 8.0779 0.0000 -0.0000 12.1338 0.0000 1.0218 17.4079 0.0000 0.0000 18.4186 -0.0000 -0.0000 17.8087 -0.0000 1.0929 20.9264 0.0000 -0.0000 17.8683 0.0000 0.0000 23.6553 0.0025 -1.0863 17.4528 -0.0000 0.0000 16.5523 0.0000 0.0000 -18.1170 12.8940 13.4907 28.2927 -9.8389 -1.6540 7.1205 18.1329 -2.9042 -5.9379 0.0000 0.0000 -2.0624 -23.3898 0.5930 12.0220 6.7928 3.2543 -6.6922 -23.4891 -8.1302 -9.5321 0.0000 0.0000 
6.4880 95.8414 -6.6574 -77.2038 -5.2307 -0.6442 4.1162 1.1529 1.6806 1.7593 -0.0561 -2.9258 1.7408 0.2478 0.0297 6.0995 -2.8418 0.7150 -0.0000 0.0000 -0.0000 -3.8960 -11.8839 4.4600 -12.9122 4.6426 -16.3284 -60.0311 15.1489 0.3822 -0.0000 -0.0000 -6.3680 -6.0461 4.6405 -24.3702 -1.2621 4.7859 8.5754 14.1884 9.5088 13.1691 -4.3748 -7.3986 1.1094 -12.6581 -0.0000 -1.1792 -17.5189 0.0000 -0.0000 -18.5301 0.0000 0.0000 -4.9265 0.4427 -4.0445 -17.4440 0.0000 -0.0000 -8.0624 0.0000 -0.0000 -18.6973 0.0000 -1.0966 -21.0258 -0.0000 0.0000 -17.9667 0.0000 0.0000 -24.4961 -0.0777 0.3821 -17.5039 0.0000 0.0000 -16.5961 0.0000 -0.0000 13.3352 4.7775 13.3061 67.3368 -2.7612 -3.4570 0.0000 0.0000 10.0556 -5.0443 3.9137 4.4898 1.2621 4.7859 -8.5754 -12.8851 8.5276 -13.4888 1.1196 -9.8423 3.6650 3.6878 0.3732 4.1812 17.4929 -0.0000 0.0000 8.1112 0.0000 -0.0000 12.0943 0.0000 1.1040 17.4364 0.0000 0.0000 18.4474 -0.0000 -0.0000 17.8073 -0.0000 1.0798 20.9328 -0.0000 -0.0000 17.8747 -0.0000 0.0000 23.7553 0.0006 -0.9848 17.4535 0.0000 -0.0000 16.5524 0.0000 0.0000 -16.7903 9.1886 13.1041 23.6464 -2.3149 -3.4195 5.2377 11.0749 -4.9409 -8.8879 0.0000 -0.0000 -1.4041 -21.3186 1.4447 11.4187 4.7979 2.1475 -6.5071 -21.0796 -6.8096 -8.9668 0.0000 -0.0000 
5.3588 95.7086 -5.6657 -80.3350 -4.9800 -0.9033 4.2093 1.0286 2.3265 1.7852 -0.2151 -2.4892 1.7992 0.0328 -0.0650 5.8363 -2.1914 0.3629 -0.0000 0.0000 -0.0000 -4.9472 -9.7075 3.3725 -13.5660 4.7159 -16.4482 -60.8480 14.6068 -0.1961 0.0000 0.0000 -5.7657 -6.5970 2.6569 -24.2920 -1.2621 4.7859 8.5754 14.1650 9.5323 13.2045 -4.3722 -7.3977 1.1040 -12.7156 -0.0000 -1.2006 -17.4797 0.0000 -0.0000 -18.4910 0.0000 0.0000 -5.0275 0.4368 -4.0551 -17.4408 -0.0000 -0.0000 -8.0591 -0.0000 0.0000 -18.7863 0.0000 -1.1091 -21.0252 -0.0000 0.0000 -17.9662 0.0000 -0.0000 -24.5595 -0.0924 0.3004 -17.5039 -0.0000 -0.0000 -16.5882 -0.0000 0.0000 12.9201 4.7097 13.6396 67.4312 4.5817 -2.5827 0.0000 -0.0000 9.7437 -5.6317 2.1488 -2.2156 1.2620 4.7859 -8.5754 -12.8594 8.0536 -13.5909 1.1227 -9.8812 3.4665 3.5237 0.3531 4.2224 17.4687 0.0000 0.0000 8.0870 -0.0000 0.0000 11.9809 0.0000 1.1578 17.4301 -0.0000 0.0000 18.4412 -0.0000 -0.0000 17.7687 -0.0000 1.1165 20.9396 -0.0000 0.0000 17.8817 -0.0000 -0.0000 23.7414 -0.0020 -0.9897 17.4470 0.0000 0.0000 16.5457 0.0000 0.0000 -15.6346 6.7143 12.9022 19.7214 6.7604 -4.2973 4.5308 2.4719 -8.7132 -10.6092 0.0000 0.0000 -1.4549 -19.0916 1.8210 12.3628 2.2088 1.1151 -7.3344 -18.4564 -4.9029 -8.0069 0.0000 0.0000 
